<svg xmlns="http://www.w3.org/2000/svg" viewBox="0 0 1200 800" width="1200" height="800">
  <rect width="1200" height="800" fill="#ffffff"/>
  <path d="M 0 0 L 1200 0 L 1200 800 L 0 800 Z" fill="none" stroke="#1c1c1c" stroke-width="3" stroke-linecap="round"/>
  <path d="M 0 400 C 82.06 399.89 185.47 356.36 138.06 444.58 C 90.66 532.81 268.54 535.59 227.01 445.97 C 185.47 356.36 328.1 407.93 410.18 406.41" fill="none" stroke="#1c1c1c" stroke-width="3" stroke-linecap="round"/>
  <path d="M 410.18 406.41 C 485.84 410.48 563.56 447.01 527.78 362.02 C 492 277.04 664.65 269.87 614.11 358.44 C 563.56 447.01 711.34 387.26 786.98 390.78" fill="none" stroke="#1c1c1c" stroke-width="3" stroke-linecap="round"/>
  <path d="M 786.98 390.78 C 869.25 407.68 990.89 365.21 961.37 439.99 C 931.85 514.77 1082.65 518.14 1036.77 441.67 C 990.89 365.21 1117.54 391.84 1200 400" fill="none" stroke="#1c1c1c" stroke-width="3" stroke-linecap="round"/>
  <path d="M 400 0 C 397.27 81.4 457.73 226.33 369.39 179.15 C 281.05 131.97 285.42 306.18 371.57 266.25 C 457.73 226.33 399.43 325.35 410.18 406.41" fill="none" stroke="#1c1c1c" stroke-width="3" stroke-linecap="round"/>
  <path d="M 410.18 406.41 C 398.79 484.89 444.22 606.27 376.63 557.87 C 309.03 509.47 305.47 647.08 374.85 626.68 C 444.22 606.27 409.6 721.48 400 800" fill="none" stroke="#1c1c1c" stroke-width="3" stroke-linecap="round"/>
  <path d="M 800 0 C 813.87 78.7 814.89 168.5 740.96 140.51 C 667.03 112.52 662.05 262.08 738.47 215.29 C 814.89 168.5 782.82 312.4 786.98 390.78" fill="none" stroke="#1c1c1c" stroke-width="3" stroke-linecap="round"/>
  <path d="M 786.98 390.78 C 786.14 472.73 818.46 626.17 746.02 589.53 C 673.59 552.89 678.12 695.28 748.29 660.72 C 818.46 626.17 783.63 718.59 800 800" fill="none" stroke="#1c1c1c" stroke-width="3" stroke-linecap="round"/>
</svg>
